<?xml version="1.0" standalone="no"?>
<!DOCTYPE svg PUBLIC "-//W3C//DTD SVG 20010904//EN"
 "http://www.w3.org/TR/2001/REC-SVG-20010904/DTD/svg10.dtd">
<svg version="1.0" xmlns="http://www.w3.org/2000/svg"
 width="413.000000pt" height="413.000000pt" viewBox="0 0 413.000000 413.000000"
 preserveAspectRatio="xMidYMid meet">
<metadata>
Created by potrace 1.14, written by Peter Selinger 2001-2017
</metadata>
<g transform="translate(0.000000,413.000000) scale(0.100000,-0.100000)"
fill="#000000" stroke="none">
<path d="M2698 4126 c-1 -2 -66 -6 -143 -10 -173 -7 -238 -12 -390 -32 -66 -9
-136 -18 -155 -20 -19 -3 -46 -7 -60 -9 -14 -3 -45 -7 -70 -11 -25 -3 -52 -7
-60 -9 -8 -3 -33 -7 -55 -11 -70 -10 -388 -74 -454 -90 -36 -9 -73 -17 -83
-19 -93 -18 -428 -121 -508 -157 -14 -6 -34 -14 -45 -18 -38 -15 -190 -93
-240 -123 -218 -134 -355 -320 -394 -537 -14 -82 -6 -413 14 -510 2 -13 7 -40
10 -60 3 -20 8 -47 10 -60 9 -44 31 -176 40 -235 8 -56 17 -116 25 -165 5 -30
11 -72 14 -92 10 -62 17 -108 32 -208 9 -52 17 -106 19 -120 3 -21 54 -317 70
-405 19 -103 69 -342 86 -405 11 -41 22 -88 25 -105 2 -16 7 -38 10 -47 3 -9
6 -25 8 -35 16 -77 96 -259 143 -323 74 -100 210 -191 353 -236 91 -29 106
-33 150 -39 25 -4 54 -9 65 -11 128 -24 505 -23 725 2 110 13 209 25 231 29 9
2 40 6 70 10 30 4 113 17 184 30 72 13 146 27 165 30 58 10 433 94 470 105 19
6 44 13 55 15 105 23 370 120 510 186 311 147 499 344 549 574 15 71 17 382 2
450 -3 17 -9 46 -12 65 -3 19 -8 44 -10 55 -2 11 -12 72 -24 135 -11 63 -22
126 -25 140 -3 13 -7 40 -10 60 -3 20 -7 47 -10 60 -3 13 -7 42 -10 65 -4 22
-13 78 -21 125 -8 47 -19 112 -24 145 -7 50 -23 144 -45 265 -14 78 -25 139
-30 170 -3 19 -8 46 -10 60 -13 62 -17 84 -41 225 -14 83 -30 170 -35 195 -6
25 -12 53 -14 62 -47 227 -145 449 -251 567 -110 123 -301 219 -489 246 -22 4
-51 8 -65 11 -14 2 -70 7 -125 10 -55 3 -105 7 -112 9 -6 2 -13 2 -15 1z
m-509 -1441 c113 -17 217 -102 279 -228 28 -58 78 -241 97 -357 3 -19 10 -60
15 -90 59 -348 8 -530 -177 -624 -110 -55 -297 -95 -429 -91 -136 4 -232 61
-292 172 -31 59 -66 172 -77 248 -3 23 -7 50 -9 60 -2 11 -7 45 -10 76 -4 31
-8 65 -10 75 -28 148 -28 386 -1 469 38 117 147 215 283 255 134 40 229 50
331 35z"/>
</g>
</svg>
